<svg width="512" height="512" viewBox="0 0 512 512" fill="none" xmlns="http://www.w3.org/2000/svg">
<rect width="512" height="512" rx="40" fill="white"/>
<rect width="512" height="512" rx="40" fill="url(#paint0_linear)"/>
<path d="M340.8 156.267H306.667V105.067C306.667 95.68 298.987 88 289.6 88H221.333C211.947 88 204.267 95.68 204.267 105.067V156.267H170.133C151.36 156.267 136 171.627 136 190.4V378.133C136 396.907 151.36 412.267 170.133 412.267C170.133 421.653 177.813 429.333 187.2 429.333C196.587 429.333 204.267 421.653 204.267 412.267H306.667C306.667 421.653 314.347 429.333 323.733 429.333C333.12 429.333 340.8 421.653 340.8 412.267C359.573 412.267 374.933 396.907 374.933 378.133V190.4C374.933 171.627 359.573 156.267 340.8 156.267ZM212.8 361.067H187.2V207.467H212.8V361.067ZM268.267 361.067H242.667V207.467H268.267V361.067ZM281.067 156.267H229.867V113.6H281.067V156.267ZM323.733 361.067H298.133V207.467H323.733V361.067Z" fill="white"/>
<defs>
<linearGradient id="paint0_linear" x1="476" y1="36" x2="56" y2="464" gradientUnits="userSpaceOnUse">
<stop stop-color="#18BE32"/>
<stop offset="1" stop-color="#48B4AD"/>
</linearGradient>
</defs>
</svg>
