<svg width="1024" height="1024" viewBox="0 0 1024 1024" fill="none" xmlns="http://www.w3.org/2000/svg">
<rect width="1024" height="1024" rx="140" fill="white"/>
<rect width="1024" height="1024" rx="80" fill="url(#paint0_linear)"/>
<path d="M246 305.111H305.111V246C272.6 246 246 272.6 246 305.111ZM246 541.556H305.111V482.444H246V541.556ZM364.222 778H423.333V718.889H364.222V778ZM246 423.333H305.111V364.222H246V423.333ZM541.556 246H482.444V305.111H541.556V246ZM718.889 246V305.111H778C778 272.6 751.4 246 718.889 246ZM305.111 778V718.889H246C246 751.4 272.6 778 305.111 778ZM246 659.778H305.111V600.667H246V659.778ZM423.333 246H364.222V305.111H423.333V246ZM482.444 778H541.556V718.889H482.444V778ZM718.889 541.556H778V482.444H718.889V541.556ZM718.889 778C751.4 778 778 751.4 778 718.889H718.889V778ZM718.889 423.333H778V364.222H718.889V423.333ZM718.889 659.778H778V600.667H718.889V659.778ZM600.667 778H659.778V718.889H600.667V778ZM600.667 305.111H659.778V246H600.667V305.111ZM393.778 659.778H630.222C646.478 659.778 659.778 646.478 659.778 630.222V393.778C659.778 377.522 646.478 364.222 630.222 364.222H393.778C377.522 364.222 364.222 377.522 364.222 393.778V630.222C364.222 646.478 377.522 659.778 393.778 659.778ZM423.333 423.333H600.667V600.667H423.333V423.333Z" fill="white"/>
<path d="M491.236 467.312V495.484H463.079V467.312H491.236ZM561.629 537.742V565.914H533.472V537.742H561.629ZM491.236 537.742V565.914H463.079V537.742H491.236ZM505.315 453.226H449V509.57H505.315V453.226ZM575.708 523.656H519.393V580H575.708V523.656ZM505.315 523.656H449V580H505.315V523.656Z" fill="white"/>
<defs>
<linearGradient id="paint0_linear" x1="952" y1="72.0001" x2="112" y2="928" gradientUnits="userSpaceOnUse">
<stop stop-color="#18BE32"/>
<stop offset="1" stop-color="#48B4AD"/>
</linearGradient>
</defs>
</svg>
